<svg xmlns="http://www.w3.org/2000/svg" viewBox="0 0 32 32">
  <!-- Black background circle -->
  <circle cx="16" cy="16" r="16" fill="#000"/>
  <!-- Skull shape -->
  <path d="M16 4C10 4 5 9 5 15c0 4 2 7 5 9v3h12v-3c3-2 5-5 5-9 0-6-5-11-11-11z" fill="none" stroke="white" stroke-width="1.5" stroke-linejoin="miter"/>
  <rect x="10" y="13" width="4" height="4" fill="white"/>
  <rect x="18" y="13" width="4" height="4" fill="white"/>
  <path d="M15 19v2h2v-2" fill="none" stroke="white" stroke-width="1.5" stroke-linejoin="miter"/>
  <path d="M11 28v-3M14 28v-3M18 28v-3M21 28v-3" stroke="white" stroke-width="1.5"/>
  <path d="M22 6l-3 5 2 3-2 4" stroke="white" stroke-width="1" opacity="0.6"/>
</svg>
